HIERARCHY
ROOT Hips
{
  OFFSET 13.6774 106.653 -34.4427
  CHANNELS 6 Xposition Yposition Zposition Zrotation Xrotation Yrotation
  JOINT ToSpine
  {
    OFFSET -2.69724 7.43032 -0.144315
    CHANNELS 3 Zrotation Xrotation Yrotation
    JOINT Spine
    {
      OFFSET -0.0310711 10.7595 1.96963
      CHANNELS 3 Zrotation Xrotation Yrotation
      JOINT Spine1
      {
        OFFSET 19.9056 3.91189 0.764692
        CHANNELS 3 Zrotation Xrotation Yrotation
        JOINT Neck
        {
          OFFSET 25.9749 7.03908 -0.130764
          CHANNELS 3 Zrotation Xrotation Yrotation
          JOINT Head
          {
            OFFSET 9.52751 0.295786 -0.907742
            CHANNELS 3 Zrotation Xrotation Yrotation
            End Site
            {
              OFFSET 16.4037 0.713936 2.7358
            }
          }
        }
        JOINT LeftShoulder
        {
          OFFSET 17.7449 4.33886 11.7777
          CHANNELS 3 Zrotation Xrotation Yrotation
          JOINT LeftArm
          {
            OFFSET 0.911315 1.27913 9.80584
            CHANNELS 3 Zrotation Xrotation Yrotation
            JOINT LeftForeArm
            {
              OFFSET 28.6126 1.18197 -3.53199
              CHANNELS 3 Zrotation Xrotation Yrotation
              JOINT LeftHand
              {
                OFFSET 27.5088 0.0218783 0.327423
                CHANNELS 3 Zrotation Xrotation Yrotation
                End Site
                {
                  OFFSET 18.6038 -0.000155887 0.382096
                }
              }
            }
          }
        }
        JOINT RightShoulder
        {
          OFFSET 17.1009 2.89543 -12.2328
          CHANNELS 3 Zrotation Xrotation Yrotation
          JOINT RightArm
          {
            OFFSET 1.4228 0.178766 -10.211
            CHANNELS 3 Zrotation Xrotation Yrotation
            JOINT RightForeArm
            {
              OFFSET 28.733 1.87905 2.64907
              CHANNELS 3 Zrotation Xrotation Yrotation
              JOINT RightHand
              {
                OFFSET 27.4588 0.290562 -0.101845
                CHANNELS 3 Zrotation Xrotation Yrotation
                End Site
                {
                  OFFSET 17.8396 -0.255518 -0.000602873
                }
              }
            }
          }
        }
      }
    }
  }
  JOINT LeftUpLeg
  {
    OFFSET -5.61296 -2.22332 -10.2353
    CHANNELS 3 Zrotation Xrotation Yrotation
    JOINT LeftLeg
    {
      OFFSET 2.56703 -44.7417 -7.93097
      CHANNELS 3 Zrotation Xrotation Yrotation
      JOINT LeftFoot
      {
        OFFSET 3.16933 -46.5642 -3.96578
        CHANNELS 3 Zrotation Xrotation Yrotation
        JOINT LeftToeBase
        {
          OFFSET 0.346054 -6.02161 12.8035
          CHANNELS 3 Zrotation Xrotation Yrotation
          End Site
          {
            OFFSET 0.134235 -1.35082 5.13018
          }
        }
      }
    }
  }
  JOINT RightUpLeg
  {
    OFFSET -5.7928 -1.72406 10.6446
    CHANNELS 3 Zrotation Xrotation Yrotation
    JOINT RightLeg
    {
      OFFSET -2.57161 -44.7178 -7.85259
      CHANNELS 3 Zrotation Xrotation Yrotation
      JOINT RightFoot
      {
        OFFSET -3.10148 -46.5936 -4.03391
        CHANNELS 3 Zrotation Xrotation Yrotation
        JOINT RightToeBase
        {
          OFFSET -0.0828122 -6.13587 12.8035
          CHANNELS 3 Zrotation Xrotation Yrotation
          End Site
          {
            OFFSET -0.131328 -1.35082 5.13018
          }
        }
      }
    }
  }
}
MOTION
Frames: 19
Frame Time: 0.03333333333333333
0.0000 93.1000 0.0000 74.8192 -24.8677 -3.8834 -71.0501 -0.0681 87.8942 129.0154 65.1442 -42.5163 -6.9387 19.0678 8.0123 -130.5592 43.6353 151.1986 140.0896 85.3431 -104.4743 -0.2822 -18.1517 -28.0684 -65.1409 28.7622 -143.7866 30.3732 -2.8589 -93.8950 -0.3539 -0.2336 0.4691 -2.9785 6.8336 46.0178 -136.9346 -3.1883 105.4895 14.6372 -8.8795 59.4976 0.3406 -0.4103 0.5071 -20.3142 15.3108 80.6991 -35.7356 82.2642 25.8149 0.2244 -17.6243 -1.6996 6.3272 -15.9168 20.7841 -20.8430 -17.1694 83.0243 20.2732 78.4816 -7.9983 -8.8023 -17.4350 1.2141 2.0078 -15.7505 -13.6139 
0.0000 93.1000 0.0000 74.0479 -24.8239 -4.7092 -71.0600 -0.0524 87.8917 128.7624 64.9341 -41.6100 -7.2277 18.9616 7.2156 -130.3235 43.7828 153.7533 141.0805 85.3934 -105.2509 -0.3462 -18.1394 -27.2169 -64.6362 27.8627 -144.9118 30.4400 -3.1091 -93.9381 0.1913 -0.1629 0.4708 -3.0264 6.8464 46.1847 -137.1137 -2.2976 105.8742 16.2129 -9.6793 59.5417 0.2009 -0.3446 0.5639 -22.3470 16.2697 80.7533 -30.7619 81.4541 20.8907 0.3530 -17.2052 -1.7853 6.0509 -16.0498 20.3299 -20.8521 -16.6121 82.7310 19.2677 77.7120 -7.9505 -9.6190 -16.5012 1.2004 1.9144 -18.6891 -14.9666 
0.0000 93.1000 0.0000 74.0633 -24.9413 -5.0812 -71.0675 0.0136 87.8899 127.9593 65.2314 -41.3694 -7.0867 18.9264 8.1545 -129.8658 43.6979 151.9117 143.9849 85.7815 -107.1146 -0.6738 -18.1085 -27.3212 -64.8569 26.9241 -147.0635 30.1663 -2.8953 -93.8498 0.2469 0.1588 0.2341 -3.0248 6.9422 45.5209 -138.0193 -1.2497 106.4360 15.7221 -9.6400 59.8015 -0.1792 0.0173 0.1184 -24.1972 17.3211 80.8263 -25.9382 80.2279 14.5941 0.0815 -17.2142 -1.9584 5.8710 -15.1065 20.8700 -21.0745 -16.2857 82.8305 17.3841 76.9833 -7.3409 -9.2717 -16.9142 1.1899 1.5812 -17.6295 -13.4237 
0.0000 93.1000 0.0000 73.0107 -24.4549 -5.7662 -71.0694 -0.0176 87.8876 125.8934 65.9570 -39.9880 -6.9734 18.3592 9.7500 -130.1038 43.4754 152.6160 149.1478 85.8851 -112.7169 -0.4749 -18.0767 -27.1224 -64.8188 26.5206 -148.9369 29.6838 -3.1178 -93.7547 -0.1221 0.0278 0.5614 -2.9750 6.9518 45.2840 -138.2351 -1.7104 106.9977 15.8538 -9.9431 59.5987 -0.1080 -0.1541 0.1503 -25.9560 18.3896 81.6549 -21.6599 78.2860 9.2286 0.0538 -18.0335 -1.8721 5.4664 -14.9188 19.9944 -21.7987 -15.8450 83.3523 15.3284 75.1837 -5.2845 -8.7554 -16.1993 0.9743 1.8246 -17.7455 -14.7097 
0.0000 93.1000 0.0000 72.9805 -24.0280 -5.3739 -71.0711 -0.0200 87.8915 124.6700 66.6513 -38.2288 -7.1828 18.4652 10.0835 -129.9061 43.1199 152.2675 147.2021 85.4060 -110.6080 -0.2899 -17.5126 -25.9488 -65.8737 25.8395 -149.9154 29.1212 -2.7429 -93.5429 -0.0856 0.0095 0.5494 -2.9411 6.8258 45.0094 -138.8999 -1.3142 107.8119 16.0921 -11.0142 59.6418 0.0986 -0.1728 0.1061 -28.4942 19.7494 82.8145 -17.7348 76.0572 3.4150 -0.7180 -18.1077 -1.7194 6.1203 -16.7389 20.3666 -21.7604 -15.6052 83.7840 13.8162 74.2386 -4.1546 -7.9414 -17.0007 0.8066 2.0620 -17.0063 -13.8084 
0.0000 93.1000 0.0000 72.1355 -23.4117 -5.6753 -71.0779 0.0542 87.9111 122.7468 67.3472 -37.3507 -6.5919 18.2509 10.4236 -128.0479 42.7851 149.3788 151.5994 85.7981 -113.6112 -0.6437 -17.9435 -25.2529 -65.8811 24.7035 -151.7910 29.4213 -1.9948 -92.9072 -0.2531 0.3817 0.2410 -3.0046 6.5509 45.2484 -139.0400 -0.9082 107.8130 16.9954 -10.6519 60.0845 -0.1923 0.2751 -0.0967 -30.3133 20.1848 84.9006 -15.3967 73.0236 -2.2716 -0.2984 -17.1669 -2.0946 7.6641 -19.1184 22.8457 -23.1111 -15.9151 83.9247 10.8021 70.8716 -2.4475 -6.8131 -15.9203 0.9064 1.8685 -14.8599 -12.1560 
0.0000 93.1000 0.0000 72.2563 -23.8341 -4.9397 -71.0736 -0.0326 87.9276 120.8025 67.8320 -34.9298 -6.0620 18.1159 10.9997 -127.0934 42.7364 148.4080 156.6326 85.8615 -119.1096 -0.1160 -17.9400 -25.0664 -66.2780 23.9386 -153.9677 29.4018 -1.8672 -92.9138 -0.2943 -0.0939 0.5036 -3.1121 6.3098 45.1875 -138.8649 -0.1017 107.7405 16.3259 -9.8897 59.5539 0.1467 -0.2325 0.2994 -31.3392 21.0152 86.3224 -12.6656 70.2038 -6.5565 -0.0617 -17.9942 -1.7114 8.0566 -18.5889 21.3426 -23.7609 -16.1182 83.1928 9.6703 69.0920 -0.9242 -5.9533 -13.7645 0.5330 2.2430 -16.3923 -10.5588 
0.0000 93.1000 0.0000 72.2131 -24.0161 -4.6236 -71.0776 -0.0951 87.9308 119.8563 67.9460 -34.1198 -6.0627 18.2518 10.4576 -127.8728 42.4243 150.5000 145.5294 85.3872 -108.4799 0.1555 -18.0404 -24.9347 -66.7726 23.7692 -154.9266 29.3427 -1.5506 -92.1887 -0.2643 -0.4160 0.7344 -3.1212 6.7440 44.3067 -138.3465 -0.2166 106.8084 16.8542 -9.9465 60.9456 0.6130 -0.6067 0.5921 -32.6296 21.0786 88.7243 -10.6987 68.2565 -9.3929 0.2723 -19.8690 -1.5011 8.3260 -18.0316 21.9401 -23.9217 -17.2154 82.6810 8.5101 67.2664 3.3258 -4.8268 -9.7584 -0.0049 1.9314 -17.8121 -9.9618 
0.0000 93.1000 0.0000 73.3543 -24.7171 -5.2986 -71.0728 -0.0831 87.9160 121.5491 68.2471 -36.0679 -6.3887 18.5826 9.9343 -125.9395 41.7487 150.1655 147.4488 84.2277 -109.3712 0.1169 -18.2445 -25.1189 -66.8763 22.6571 -155.7312 28.9893 -1.5208 -92.1008 -0.1156 -0.3240 0.8801 -3.2077 6.8492 44.0516 -137.9854 0.0754 105.6314 17.0875 -9.9575 62.5425 0.6323 -0.5810 0.4836 -34.7074 20.9380 89.6183 -10.3396 67.0636 -9.9684 0.1145 -19.9865 -1.4935 8.3761 -18.8160 21.5710 -25.0726 -19.1228 82.0478 8.4408 65.0606 6.7623 -3.6534 -5.7696 -0.3340 2.0030 -19.2894 -13.0090 
0.0000 93.1000 0.0000 74.3271 -25.6841 -4.5127 -71.0732 0.0270 87.8904 123.6600 68.5005 -38.4229 -6.3322 18.9438 10.0711 -124.7503 41.4230 151.1496 145.4633 83.7849 -109.4149 -0.4390 -18.0213 -24.1155 -66.8725 23.0264 -156.6230 28.0835 -0.9098 -91.0651 0.0248 0.2756 0.7097 -3.2713 6.9063 43.2184 -137.0313 0.5062 104.3136 17.4682 -8.9162 63.6524 0.3161 0.0226 0.1933 -36.5585 20.9650 91.0293 -10.0582 65.8416 -10.2765 -0.0334 -20.1596 -1.9485 8.5303 -18.8134 22.0988 -25.8803 -20.1615 81.7142 8.1961 64.3178 7.6277 -2.9849 -4.2267 -0.2278 1.9974 -22.5589 -18.5270 
0.0000 93.1000 0.0000 74.5318 -26.6261 -4.6517 -71.0798 0.0072 87.8983 123.4691 69.0803 -38.6805 -6.8760 19.9374 9.9895 -124.9708 41.0459 151.6916 145.2250 83.0332 -109.1399 -0.2653 -17.3312 -23.9392 -65.8705 22.4549 -156.9340 27.6014 -1.0592 -90.9799 0.0599 0.1231 0.6701 -3.2388 7.0482 43.9092 -136.1508 1.0770 101.9579 18.0544 -7.9224 67.4641 0.2169 -0.1418 0.0010 -37.6136 21.0031 92.4719 -10.1878 66.3987 -10.1877 0.3213 -20.2335 -1.8332 8.0575 -18.9099 22.8253 -26.8067 -20.0106 80.5096 6.4699 62.0624 3.4888 -4.7464 -5.7540 -0.1473 1.8476 -22.7108 -16.6042 
0.0000 93.1000 0.0000 73.4534 -27.6522 -4.6397 -71.0840 0.0767 87.8841 120.7600 69.2540 -36.9852 -6.2218 19.9381 9.9445 -125.0155 41.0147 152.3617 146.2897 82.5423 -112.1171 -0.5157 -16.7903 -23.3644 -65.8576 21.6843 -156.6549 27.3629 -1.8192 -92.1018 0.1466 0.3863 0.0252 -3.1953 7.0409 44.3466 -135.8847 1.3355 101.5889 17.7088 -6.9471 69.7351 0.0381 0.2446 -0.1982 -37.5159 20.6441 92.7145 -9.6287 67.3872 -9.8832 0.5281 -22.2934 -2.2080 6.6161 -17.1719 23.0497 -27.9335 -19.9523 79.6453 4.0377 58.2246 1.0805 -6.0749 -6.7000 0.2028 1.5284 -20.2634 -10.6390 
0.0000 93.1000 0.0000 74.4712 -27.8180 -4.6996 -71.0857 0.0658 87.8943 119.7016 69.4784 -36.3038 -5.9539 20.4167 9.1241 -125.9189 40.8861 152.5529 149.2045 82.1102 -113.9290 -0.3829 -16.3676 -23.3168 -65.8048 21.5210 -155.8871 26.2560 -2.1690 -92.8049 -0.0902 0.2999 -0.1492 -3.1629 6.9729 45.1197 -135.2768 1.2299 100.5330 17.5051 -5.8438 71.8726 -0.1644 0.1869 -0.3140 -36.8755 20.0827 92.7054 -10.0571 67.2430 -8.4068 0.9967 -22.1206 -2.2220 6.2803 -16.1374 22.5531 -29.5690 -19.0544 79.6952 4.3704 56.2425 2.0916 -4.1680 -5.9556 -0.1438 1.0045 -15.1920 -7.1342 
0.0000 93.1000 0.0000 74.6444 -27.4973 -4.2012 -71.0847 0.0235 87.9143 119.5953 69.8228 -36.2543 -5.3926 20.9453 8.7972 -125.9117 40.5469 152.5301 146.8453 81.9625 -110.8666 -0.1753 -16.7481 -24.0514 -65.9334 22.0744 -154.6102 27.2893 -2.0457 -93.9665 -0.1721 0.0672 0.1831 -3.1184 7.1364 45.2088 -134.8518 1.5726 99.6870 18.7700 -6.0743 73.4426 -0.2272 -0.0391 -0.1134 -36.6821 19.9458 91.9283 -10.8407 68.1009 -7.8896 1.0683 -22.2155 -2.0776 6.1761 -15.9202 23.4629 -28.9081 -18.9279 79.5090 3.7357 56.8038 -0.2360 -4.7044 -4.9277 -0.1157 0.8755 -13.7763 -0.7844 
0.0000 93.1000 0.0000 75.6745 -27.6625 -3.0236 -71.0857 0.0038 87.9046 119.5685 69.8990 -35.7760 -4.7697 21.0861 8.3556 -125.0533 39.6901 153.0772 145.2700 81.2304 -109.8040 -0.1450 -17.0097 -24.9579 -65.9947 22.7337 -154.0069 27.0791 -2.7455 -94.0431 -0.1483 -0.0474 0.2739 -3.1573 6.9237 46.1389 -135.3805 2.2492 99.3881 18.6617 -5.8746 74.8505 -0.2518 -0.1525 0.1567 -37.2180 20.7209 91.4655 -11.1213 68.6981 -6.9862 1.8092 -22.1344 -2.1164 6.0916 -15.6866 23.3997 -30.4792 -19.2650 78.5960 3.6299 56.3829 2.1398 -4.9642 -4.8215 -0.1604 1.1632 -13.8060 -5.2137 
0.0000 93.1000 0.0000 76.5809 -27.6764 -2.6842 -71.0914 0.0683 87.8963 118.2831 69.9043 -34.1719 -4.0283 20.8588 8.2384 -123.9258 39.6338 152.7038 148.3904 81.0070 -113.3899 -0.5375 -17.1642 -26.0800 -64.6782 23.7607 -151.6396 27.2684 -2.9393 -94.0936 0.1312 0.2342 -0.1145 -3.2169 6.9514 47.1911 -135.1772 2.2767 98.3374 18.3175 -5.5896 74.5736 -0.4448 0.1994 -0.0330 -37.8266 20.9019 91.5512 -11.7508 69.0491 -7.1075 1.8333 -21.9752 -2.3834 6.2364 -16.0371 23.0993 -31.8539 -19.9309 76.6240 3.3893 55.1818 1.6432 -4.9251 -5.0681 -0.0543 0.7978 -11.9744 -1.2395 
0.0000 93.1000 0.0000 76.4466 -27.5171 -2.7590 -71.0857 0.0516 87.8900 117.3262 69.9441 -33.1461 -4.0621 20.9732 8.1041 -124.9419 39.8072 154.2482 149.2468 80.9329 -115.4370 -0.4726 -16.8800 -26.8736 -62.9016 24.7812 -150.6308 28.3523 -2.9506 -95.2754 -0.1663 0.1426 -0.0026 -3.1718 6.8427 47.0045 -134.3270 2.2398 98.5034 17.8417 -5.8468 73.6391 -0.2698 0.0795 -0.0928 -37.6995 20.9291 91.7100 -12.0186 70.0180 -6.2420 1.3523 -22.1483 -2.1864 6.0414 -15.6912 22.4491 -31.7932 -20.0596 76.6383 3.6035 54.9742 2.0077 -5.7827 -5.0493 0.0248 0.7802 -12.8638 0.5821 
0.0000 93.1000 0.0000 76.4815 -28.4468 -2.4758 -71.0877 0.0316 87.8922 116.1897 70.3126 -32.8122 -3.1073 21.0774 8.1532 -125.0480 39.8986 153.1439 150.1855 81.2705 -116.3891 -0.4304 -17.0159 -27.2790 -62.6984 24.7234 -149.3582 28.9354 -2.9882 -95.2458 -0.0336 0.0312 0.2124 -3.1689 6.9401 47.0916 -134.1021 2.0243 98.5670 17.7673 -5.8334 72.8887 0.0490 -0.0324 0.0523 -37.7739 20.9124 91.9537 -11.9548 70.0723 -4.9076 1.8528 -23.0926 -2.2047 5.9334 -14.9854 21.4361 -31.8163 -20.1964 76.9058 4.0236 54.8279 3.2099 -5.9114 -3.9472 -0.0541 0.7339 -14.0712 -0.1649 
0.0000 93.1000 0.0000 76.4340 -28.6484 -2.7727 -71.0891 0.0216 87.9030 115.0797 71.0458 -30.9157 -2.9195 21.1340 8.3309 -125.9102 39.9929 153.9950 152.8697 81.7548 -117.6065 -0.4496 -17.0896 -28.0099 -62.5447 24.7355 -148.4208 29.2483 -4.0614 -95.0406 0.1455 -0.0166 0.1968 -3.1779 6.8348 47.0954 -133.9906 1.3263 98.4597 17.5561 -6.8409 71.5586 -0.1173 -0.0792 0.0956 -37.7487 20.8302 92.5877 -12.0586 69.9779 -5.1250 1.7238 -23.1443 -2.0782 5.4829 -15.1003 22.1185 -31.7783 -20.8687 77.5876 3.9167 54.8037 2.0696 -6.1096 -3.9208 -0.0129 0.6779 -13.9149 0.8868 
